<?xml version="1.0" standalone="no"?>
<!DOCTYPE svg PUBLIC "-//W3C//DTD SVG 20010904//EN"
 "http://www.w3.org/TR/2001/REC-SVG-20010904/DTD/svg10.dtd">
<svg version="1.0" xmlns="http://www.w3.org/2000/svg"
 width="1388.000000pt" height="1388.000000pt" viewBox="0 0 1388.000000 1388.000000"
 preserveAspectRatio="xMidYMid meet">
<metadata>
Created by potrace 1.11, written by Peter Selinger 2001-2013
</metadata>
<g transform="translate(0.000000,1388.000000) scale(0.100000,-0.100000)"
fill="#000000" stroke="none">
<path d="M7120 11225 c0 -17 4 -111 10 -210 5 -99 17 -346 25 -550 26 -618 36
-850 40 -853 2 -2 41 34 87 80 156 155 342 290 535 388 87 44 101 54 93 68 -6
10 -32 47 -58 83 -26 37 -123 174 -217 305 -93 132 -201 283 -240 337 -38 54
-77 108 -85 120 -26 40 -172 242 -181 252 -5 5 -9 -3 -9 -20z"/>
<path d="M10730 11183 c-74 -36 -171 -83 -215 -103 -139 -65 -520 -246 -870
-415 -88 -42 -209 -100 -270 -127 -60 -27 -135 -63 -165 -78 -30 -15 -118 -58
-195 -95 -152 -73 -153 -76 -45 -89 362 -44 760 -221 1035 -461 55 -48 137
-102 400 -263 55 -34 105 -65 110 -70 6 -5 39 -25 75 -46 36 -21 97 -57 135
-81 39 -24 90 -56 115 -71 55 -33 198 -121 390 -241 80 -49 181 -111 225 -138
91 -54 180 -109 277 -172 37 -24 70 -43 73 -43 4 0 21 -11 40 -26 66 -50 66
-51 -130 456 -37 96 -82 216 -100 265 -18 50 -50 133 -70 185 -20 52 -45 118
-56 145 -77 204 -113 296 -129 335 -10 25 -48 124 -84 220 -35 96 -83 222
-106 280 -22 58 -63 166 -91 240 -27 74 -61 162 -74 195 -65 163 -95 244 -95
254 0 23 -49 8 -180 -56z"/>
<path d="M5107 10893 c1 -21 10 -272 19 -558 9 -286 23 -713 32 -950 l17 -429
75 -58 c96 -74 272 -162 375 -188 44 -10 139 -33 210 -50 349 -84 610 -303
850 -713 31 -54 59 -96 62 -94 2 3 -3 56 -11 118 -21 148 -21 423 0 571 40
293 110 509 248 767 13 25 21 52 18 60 -3 9 -44 104 -92 211 -47 107 -103 234
-124 281 -43 98 -8 70 -341 270 -93 56 -262 158 -375 227 -113 69 -221 134
-240 144 -19 10 -75 43 -125 74 -210 130 -584 354 -592 354 -5 0 -7 -17 -6
-37z"/>
<path d="M4000 10147 c-93 -26 -185 -108 -229 -203 -20 -44 -31 -55 -75 -75
-32 -15 -82 -55 -133 -106 -75 -74 -83 -85 -83 -120 0 -21 4 -53 10 -72 9 -33
46 -81 61 -81 4 0 34 24 66 53 87 81 158 129 284 195 196 104 449 177 732 212
l98 13 -7 31 c-10 47 -51 123 -76 140 -30 21 -151 21 -243 0 -87 -20 -99 -20
-154 0 -60 23 -193 30 -251 13z"/>
<path d="M4565 9915 c-405 -60 -728 -198 -946 -405 l-51 -49 4 -58 c3 -32 13
-76 23 -98 10 -22 17 -43 17 -47 -1 -5 1 -7 6 -6 4 1 17 -1 29 -6 17 -5 33 0
65 24 358 259 723 410 1081 446 57 6 67 10 67 26 0 27 -54 142 -79 167 -25 25
-76 26 -216 6z"/>
<path d="M4755 9685 c-231 -31 -408 -86 -630 -195 -131 -64 -312 -176 -406
-251 -39 -31 -41 -34 -35 -72 14 -88 86 -197 129 -197 7 0 53 36 103 81 259
234 592 379 949 413 l120 11 -3 40 c-8 86 -58 163 -117 177 -11 3 -60 0 -110
-7z"/>
<path d="M1860 9629 c-80 -4 -219 -12 -310 -18 -91 -6 -284 -17 -430 -26 -146
-8 -301 -17 -345 -20 -44 -2 -95 -5 -112 -5 -18 0 -33 -4 -33 -8 0 -4 33 -25
73 -46 39 -22 95 -51 122 -66 28 -15 84 -45 125 -67 41 -22 129 -70 195 -106
66 -35 152 -81 190 -102 39 -21 97 -52 130 -70 33 -18 94 -50 135 -73 41 -22
116 -62 165 -88 50 -27 112 -60 138 -74 l48 -25 17 22 c9 12 39 57 66 100 27
43 59 94 71 113 80 125 195 314 195 321 0 5 -3 9 -7 9 -5 0 -26 17 -48 38 -78
73 -204 181 -222 189 -10 5 -83 6 -163 2z"/>
<path d="M4925 9443 c-348 -21 -667 -145 -942 -366 -113 -91 -145 -129 -150
-180 -7 -60 19 -136 63 -181 59 -60 72 -58 163 24 164 149 346 258 539 324
133 45 212 62 357 77 66 6 123 17 127 23 13 19 9 125 -7 162 -20 47 -70 111
-92 115 -10 2 -36 3 -58 2z"/>
<path d="M4600 8933 c0 -75 85 -326 153 -453 52 -97 138 -209 226 -293 84 -81
155 -128 401 -268 167 -94 381 -254 380 -282 -1 -7 -31 -34 -68 -62 -37 -27
-150 -132 -252 -233 -102 -100 -206 -196 -230 -213 -60 -40 -141 -63 -194 -55
-244 37 -435 362 -590 1007 -40 168 -86 397 -116 589 -13 82 -23 102 -46 93
-19 -7 -18 -14 57 -413 47 -250 135 -595 178 -695 5 -11 25 -63 46 -115 152
-391 373 -572 602 -494 76 26 125 66 333 269 172 168 307 285 329 285 9 0 116
-118 181 -199 25 -31 83 -112 129 -180 121 -179 163 -216 251 -227 116 -13
224 59 332 221 25 39 85 147 133 240 53 102 93 169 101 167 7 -1 81 -36 166
-77 283 -136 440 -178 673 -177 l141 0 46 -132 c89 -252 135 -435 173 -686 37
-247 35 -693 -4 -960 -18 -123 -16 -148 12 -137 18 7 22 27 48 254 29 259 23
628 -15 868 -24 159 -51 289 -80 395 -8 30 -18 66 -22 80 -11 44 -96 284 -106
304 -13 24 -2 31 75 46 147 29 381 134 548 245 l94 63 2 -61 c1 -34 7 -201 13
-372 16 -452 56 -941 125 -1545 43 -368 41 -360 66 -360 24 0 24 1 -1 197 -37
293 -93 865 -114 1158 -27 363 -36 568 -36 806 l0 227 38 28 c120 92 311 305
416 466 107 164 156 296 156 420 l0 79 -46 49 c-54 58 -112 81 -207 82 -172 3
-277 -135 -346 -457 -26 -120 -38 -233 -51 -460 -13 -217 3 -186 -138 -281
-88 -59 -226 -133 -329 -177 -79 -33 -247 -79 -274 -75 -16 2 -32 29 -68 113
-99 230 -207 401 -317 505 -75 70 -136 100 -213 107 -105 10 -198 -48 -301
-188 -30 -42 -78 -120 -105 -173 -30 -56 -56 -96 -65 -96 -8 0 -27 7 -43 15
-53 27 -203 74 -286 90 -143 26 -335 16 -466 -23 -82 -26 -210 -80 -248 -105
l-27 -18 -90 75 c-112 94 -228 172 -390 263 -69 38 -158 91 -198 117 -225 145
-409 430 -482 749 -19 80 -26 97 -41 97 -14 0 -19 -7 -19 -27z m4617 -121 c84
-44 106 -102 81 -224 -37 -180 -210 -440 -437 -661 -55 -54 -105 -97 -110 -97
-32 0 15 485 64 670 28 103 80 219 118 262 13 15 44 39 68 53 38 23 53 26 109
22 40 -2 81 -12 107 -25z m-1800 -713 c138 -51 287 -247 424 -555 40 -93 48
-118 38 -125 -19 -12 -188 -11 -274 1 -79 11 -269 68 -354 107 -158 71 -301
143 -301 153 0 5 19 45 42 88 125 234 234 342 344 342 29 0 65 -5 81 -11z
m-937 -329 c102 -13 225 -45 300 -78 30 -13 65 -28 78 -33 22 -8 21 -11 -59
-171 -165 -330 -272 -448 -406 -448 -76 0 -118 37 -238 211 -111 161 -192 264
-254 324 -23 21 -41 44 -41 50 0 12 76 49 181 89 90 33 209 56 329 64 14 1 64
-3 110 -8z"/>
<path d="M10633 8893 c3 -16 17 -82 31 -148 46 -220 57 -421 35 -639 -6 -59
-8 -110 -6 -113 3 -2 79 44 169 103 90 59 252 166 361 237 109 72 194 134 190
138 -5 5 -44 28 -88 52 -73 40 -163 91 -475 270 -58 33 -131 75 -164 94 l-58
33 5 -27z"/>
<path d="M3467 8738 c6 -7 41 -53 79 -103 37 -49 95 -125 128 -169 34 -43 97
-126 141 -185 74 -100 136 -181 184 -241 l20 -25 11 30 c15 38 8 448 -7 485
-9 20 -30 32 -99 57 -49 18 -150 55 -224 84 -74 28 -151 57 -170 65 -46 17
-76 18 -63 2z"/>
<path d="M3320 8403 c-35 -49 -87 -119 -116 -158 -48 -65 -112 -153 -431 -589
-63 -88 -120 -165 -125 -170 -5 -6 -58 -78 -118 -161 -183 -251 -246 -336
-311 -425 -34 -47 -87 -119 -117 -160 -31 -41 -72 -97 -92 -125 -151 -203
-290 -397 -290 -403 0 -4 35 -17 78 -30 42 -12 120 -35 172 -51 263 -79 425
-127 525 -156 177 -52 716 -212 893 -266 90 -27 168 -46 175 -42 13 8 577 431
591 444 6 5 -10 33 -36 66 -141 180 -260 435 -313 670 -76 335 -51 589 81 834
48 89 53 70 -61 224 -45 61 -129 175 -187 255 -155 214 -238 325 -246 328 -4
1 -36 -37 -72 -85z"/>
<path d="M12605 7931 c-341 -114 -702 -234 -802 -267 -101 -32 -183 -61 -183
-64 0 -7 103 -41 540 -179 173 -55 486 -154 695 -220 208 -67 383 -121 387
-121 4 0 8 239 8 530 0 418 -3 530 -12 529 -7 0 -292 -94 -633 -208z"/>
<path d="M10507 7338 c-28 -78 -158 -322 -232 -433 -68 -103 -110 -151 -295
-335 -283 -282 -389 -414 -475 -595 -21 -44 -58 -120 -82 -169 -24 -49 -40
-93 -36 -96 8 -7 129 -60 483 -215 294 -129 938 -412 1045 -460 28 -12 84 -37
125 -55 41 -17 110 -48 153 -67 43 -19 80 -33 83 -31 2 3 -5 171 -16 374 -11
203 -33 630 -50 949 -40 762 -33 695 -77 725 -20 14 -83 59 -139 100 -153 113
-445 324 -461 333 -10 6 -17 0 -26 -25z"/>
<path d="M6970 7043 c0 -520 -439 -1102 -1004 -1333 -218 -89 -394 -122 -642
-119 l-181 2 -35 -39 c-20 -21 -73 -84 -119 -140 -46 -56 -146 -176 -222 -268
-76 -91 -140 -172 -143 -179 -2 -7 39 -132 91 -278 53 -145 127 -349 165 -454
93 -260 153 -425 187 -520 17 -44 90 -248 164 -453 82 -227 139 -371 146 -370
6 2 369 242 807 533 738 492 795 532 804 565 6 19 22 78 37 130 14 52 39 138
54 190 16 52 38 129 49 170 12 41 42 149 67 240 25 91 50 176 55 190 5 14 30
102 56 195 25 94 81 294 124 445 43 151 95 332 114 402 l36 127 -35 106 c-42
128 -93 218 -199 350 -45 55 -98 123 -117 150 -44 60 -173 285 -213 373 -17
34 -33 62 -38 62 -4 0 -8 -35 -8 -77z"/>
<path d="M4195 5843 c-98 -86 -343 -302 -490 -432 -16 -15 -109 -96 -205 -180
-302 -265 -314 -278 -258 -260 48 16 242 86 318 116 36 14 144 54 240 88 96
35 270 98 385 141 116 42 244 89 285 104 480 174 537 196 528 205 -1 1 -41 13
-88 25 -160 43 -379 151 -507 251 -35 27 -68 49 -75 49 -7 0 -67 -48 -133
-107z"/>
<path d="M7593 5478 c-58 -64 -82 -154 -61 -228 16 -53 39 -66 236 -136 361
-128 782 -189 1128 -165 164 12 347 36 381 51 33 14 83 107 83 155 0 22 -11
64 -25 94 -25 52 -26 53 -58 46 -189 -42 -435 -58 -679 -45 -274 14 -615 95
-868 205 -114 50 -113 49 -137 23z"/>
<path d="M9387 5178 c5 -54 2 -71 -17 -108 -12 -25 -31 -55 -42 -67 l-20 -21
27 -68 c19 -46 27 -86 27 -126 0 -32 3 -60 7 -62 4 -3 70 6 146 19 77 13 178
29 225 35 47 6 153 22 235 35 83 14 200 31 260 40 158 22 309 47 314 51 6 6
-47 24 -174 59 -66 18 -302 86 -525 151 -223 64 -420 119 -437 122 l-32 4 6
-64z"/>
<path d="M7537 5152 c-29 -32 -52 -124 -51 -202 1 -114 7 -124 127 -180 334
-157 699 -232 1142 -234 254 -1 498 18 521 41 29 29 57 151 52 226 -5 75 -37
157 -61 157 -7 0 -75 -9 -152 -20 -282 -39 -524 -36 -830 10 -215 33 -504 115
-672 190 -57 26 -63 27 -76 12z"/>
<path d="M7500 4743 c-37 -133 -36 -234 3 -278 36 -40 280 -128 525 -189 245
-61 460 -86 737 -86 174 0 411 18 464 35 26 8 68 81 76 131 6 44 -7 136 -24
163 -8 12 -25 13 -118 2 -164 -19 -461 -25 -613 -12 -376 31 -667 103 -943
230 -48 23 -89 41 -92 41 -2 0 -9 -17 -15 -37z"/>
<path d="M7507 4403 c-15 -25 -37 -124 -37 -169 0 -66 21 -116 63 -148 47 -36
187 -100 287 -130 78 -24 87 -30 110 -67 38 -62 122 -134 204 -175 172 -85
368 -65 534 53 46 33 48 33 158 33 121 0 226 21 321 65 46 21 57 31 78 77 29
62 34 158 10 214 -14 33 -15 34 -57 29 -24 -4 -53 -8 -65 -11 -12 -2 -95 -8
-185 -14 -278 -17 -624 16 -904 84 -137 34 -353 104 -447 145 -53 23 -63 25
-70 14z"/>
<path d="M3150 4104 c-197 -65 -353 -116 -540 -174 -91 -29 -183 -58 -205 -66
-22 -7 -127 -41 -232 -74 l-193 -61 0 -545 c0 -319 4 -544 9 -544 5 0 29 24
52 53 24 28 51 59 59 67 8 8 44 49 80 90 36 41 67 77 70 80 3 3 32 37 64 75
33 39 65 75 71 80 6 6 42 46 80 90 39 45 133 152 210 239 77 88 158 180 180
206 73 86 229 265 244 281 9 8 41 44 71 79 30 35 74 85 98 111 67 73 66 74
-118 13z"/>
</g>
</svg>
